<?xml version="1.0" standalone="no"?>
<!DOCTYPE svg PUBLIC "-//W3C//DTD SVG 20010904//EN"
 "http://www.w3.org/TR/2001/REC-SVG-20010904/DTD/svg10.dtd">
<svg version="1.0" xmlns="http://www.w3.org/2000/svg"
 width="260.000000pt" height="260.000000pt" viewBox="0 0 260.000000 260.000000"
 preserveAspectRatio="xMidYMid meet">
<metadata>
Created by potrace 1.14, written by Peter Selinger 2001-2017
</metadata>
<g transform="translate(0.000000,260.000000) scale(0.100000,-0.100000)"
fill="#262626" stroke="none">
<path d="M183 1305 l0 -1215 293 0 294 0 0 363 0 362 154 160 c85 88 157 157
160 154 3 -3 63 -91 133 -196 71 -105 227 -338 347 -517 l219 -326 358 0 358
0 -262 378 c-145 207 -292 420 -328 472 -37 52 -141 202 -232 334 l-166 238
22 22 c20 21 152 161 372 396 44 47 103 110 131 140 29 30 69 73 89 95 21 22
92 98 159 169 66 71 131 141 143 155 l23 26 -367 3 -368 2 -45 -48 c-38 -41
-136 -148 -260 -282 -14 -15 -49 -54 -79 -86 -30 -32 -100 -108 -156 -169
-113 -121 -118 -126 -255 -275 -52 -57 -107 -116 -122 -133 l-28 -29 0 511 0
511 -293 0 -294 0 0 -1215z"/>
</g>
</svg>
